<?xml version="1.0" standalone="no"?>
<!DOCTYPE svg PUBLIC "-//W3C//DTD SVG 20010904//EN"
 "http://www.w3.org/TR/2001/REC-SVG-20010904/DTD/svg10.dtd">
<svg version="1.0" xmlns="http://www.w3.org/2000/svg"
 width="720.000000pt" height="720.000000pt" viewBox="0 0 720.000000 720.000000"
 preserveAspectRatio="xMidYMid meet">
<metadata>
Created by potrace 1.14, written by Peter Selinger 2001-2017
</metadata>
<g transform="translate(0.000000,720.000000) scale(0.100000,-0.100000)"
fill="#000000" stroke="none">
<path d="M0 5958 c0 -841 4 -1312 12 -1456 9 -168 9 -220 -1 -247 -8 -23 -9
-40 -3 -52 5 -10 15 -152 21 -317 11 -269 11 -300 -4 -316 -22 -25 -6 -198 24
-257 12 -22 25 -63 30 -90 7 -46 26 -91 122 -289 21 -44 39 -85 39 -90 0 -5
13 -24 30 -42 16 -18 30 -39 30 -47 0 -8 18 -35 40 -60 22 -25 40 -51 40 -56
0 -5 40 -50 90 -98 49 -49 90 -94 90 -100 0 -5 16 -22 36 -37 19 -15 50 -41
68 -58 18 -17 48 -42 66 -56 19 -14 44 -35 56 -47 12 -12 34 -25 49 -29 15 -4
49 -26 75 -49 26 -23 66 -53 89 -66 23 -12 41 -26 41 -30 0 -3 25 -24 55 -44
30 -21 55 -41 55 -44 0 -4 29 -22 65 -41 36 -19 65 -37 65 -41 0 -3 19 -11 43
-18 36 -11 139 -58 212 -98 12 -7 49 -47 81 -90 32 -42 76 -94 97 -115 20 -21
37 -43 37 -48 0 -5 20 -44 45 -86 49 -83 61 -144 27 -144 -10 0 -26 -15 -36
-34 -12 -23 -28 -37 -47 -41 -15 -4 -34 -17 -43 -29 -13 -21 -13 -26 -1 -42
19 -25 18 -40 -1 -85 -13 -28 -26 -40 -55 -49 -49 -16 -74 -61 -67 -118 5 -36
3 -42 -15 -48 -56 -17 -71 -68 -38 -128 11 -18 22 -56 26 -82 3 -27 8 -63 11
-81 4 -29 43 -83 102 -139 12 -12 22 -26 22 -32 0 -6 8 -13 18 -16 11 -4 25
-18 32 -31 7 -14 17 -25 22 -25 4 0 8 -17 8 -38 0 -41 0 -41 98 -67 31 -9 23
-29 -14 -35 -33 -6 -99 -47 -128 -79 -27 -30 -71 -48 -133 -56 -57 -7 -81 1
-126 47 -16 15 -37 28 -48 28 -21 0 -129 100 -129 120 0 20 -39 88 -70 122
-17 18 -42 57 -57 85 -27 57 -41 64 -61 33 -39 -62 -33 -200 8 -200 21 0 25
-17 21 -90 -2 -27 4 -41 26 -62 15 -14 37 -28 48 -30 13 -2 23 -17 33 -51 l13
-47 2980 0 2979 0 0 3600 0 3600 -1999 0 -2000 0 -24 -32 c-14 -18 -28 -43
-31 -55 -4 -12 -27 -43 -51 -69 -44 -46 -44 -47 -24 -63 21 -17 21 -17 -5 -31
-14 -7 -26 -17 -26 -22 0 -4 -15 -8 -33 -8 -17 0 -48 -5 -67 -11 -19 -6 -99
-12 -177 -13 -140 -1 -141 -1 -162 -28 -31 -39 -82 -53 -189 -49 -75 2 -92 0
-92 -11 0 -9 -26 -25 -62 -39 -41 -16 -67 -33 -73 -47 -5 -12 -13 -22 -17 -22
-5 0 -8 -7 -8 -15 0 -8 -4 -15 -10 -15 -5 0 -10 5 -10 10 0 6 -12 10 -26 10
-15 0 -46 10 -70 22 -44 21 -44 22 -44 75 0 53 0 53 40 69 22 9 40 22 40 30 0
14 54 74 67 74 4 0 9 30 11 67 4 78 12 97 50 115 15 7 28 23 30 36 l3 22
-1120 0 -1121 0 0 -1242z m2880 162 c0 -4 11 -12 24 -20 14 -7 27 -23 30 -36
5 -17 12 -23 29 -21 18 2 22 -3 24 -30 1 -18 -3 -33 -8 -33 -5 0 -7 -11 -3
-24 4 -17 -1 -31 -15 -45 -12 -12 -21 -24 -21 -28 0 -5 -10 -27 -22 -49 -18
-34 -29 -44 -67 -54 -25 -7 -73 -14 -106 -15 -63 -1 -115 -20 -115 -41 0 -6
-22 -17 -50 -24 -27 -7 -47 -16 -44 -21 3 -5 -6 -9 -20 -9 -14 0 -28 -4 -31
-10 -8 -13 -88 -13 -117 0 -23 11 -48 52 -48 80 0 8 -9 21 -20 28 -15 9 -20
23 -20 52 0 29 5 43 20 52 11 7 20 17 20 23 0 17 69 77 80 70 15 -9 82 17 106
41 11 12 42 31 68 43 26 11 45 25 42 30 -12 18 107 49 187 48 42 -1 77 -4 77
-7z m960 -312 c0 -21 -5 -23 -58 -23 -31 0 -59 5 -61 10 -6 15 40 35 82 35 32
0 37 -3 37 -22z m-1775 -1628 c12 0 95 -76 95 -88 0 -16 68 -71 90 -74 14 -2
36 -11 50 -21 13 -9 31 -17 38 -17 9 0 12 -6 8 -16 -3 -8 1 -31 9 -50 10 -25
12 -41 5 -54 -16 -29 -11 -101 9 -146 12 -27 34 -50 65 -70 38 -24 46 -34 46
-59 0 -19 7 -35 20 -43 22 -13 29 -76 9 -87 -5 -4 -9 -21 -7 -37 2 -18 -2 -33
-9 -35 -8 -3 -13 4 -13 18 0 43 -22 3 -26 -46 -2 -41 0 -47 22 -57 13 -6 24
-14 24 -18 0 -4 19 -13 43 -20 23 -7 36 -15 30 -17 -27 -10 -11 -23 27 -23 22
0 40 -4 40 -10 0 -19 86 -11 112 10 14 10 28 16 32 12 4 -3 10 -2 14 3 18 25
76 46 129 47 49 1 65 -3 107 -30 28 -18 58 -32 68 -32 17 0 23 -18 19 -62 -1
-9 3 -19 9 -23 23 -14 4 -75 -32 -103 -10 -7 -18 -18 -18 -23 0 -20 -56 -67
-88 -74 -25 -5 -32 -12 -32 -30 0 -57 -84 -99 -145 -74 -17 7 -64 14 -105 14
-80 2 -150 22 -150 42 0 7 -7 13 -15 13 -32 0 -65 23 -65 46 0 25 -26 44 -59
44 -12 0 -21 5 -21 10 0 7 -13 8 -36 4 -23 -4 -39 -3 -43 5 -10 15 -234 17
-239 2 -2 -6 -21 -11 -43 -11 -21 0 -39 -4 -39 -10 0 -17 -24 -10 -52 15 -16
13 -28 34 -28 47 0 17 -11 28 -39 41 -28 13 -40 25 -44 45 -3 15 -13 47 -22
71 -13 36 -16 74 -13 196 2 116 0 156 -10 168 -11 13 -12 27 -3 67 6 29 9 55
6 60 -6 10 15 72 32 88 7 8 13 35 13 63 0 29 13 89 30 142 26 76 40 101 80
145 28 29 50 59 50 68 0 13 5 12 26 -5 15 -12 32 -21 39 -21z m2660 -173 c7
-7 45 -19 84 -26 39 -7 71 -18 71 -24 0 -7 18 -20 39 -30 25 -11 41 -26 45
-42 4 -14 12 -25 19 -25 16 0 48 -34 65 -70 16 -32 4 -59 -50 -113 -21 -21
-38 -47 -38 -58 0 -11 -8 -22 -17 -25 -10 -3 -40 -14 -68 -25 -33 -13 -93 -23
-180 -30 -71 -6 -132 -14 -135 -18 -3 -5 -35 -12 -72 -15 -70 -8 -218 10 -218
25 0 5 -9 9 -19 9 -28 0 -51 10 -51 23 0 6 -6 18 -14 26 -12 14 -10 28 16 101
16 47 32 94 35 104 7 23 53 65 71 66 6 0 12 4 12 8 0 16 77 45 155 59 44 7 96
16 115 20 35 6 82 35 80 49 -1 7 20 19 38 23 2 1 9 -5 17 -12z m-3121 -3203
c23 -9 20 -24 -4 -24 -11 0 -20 7 -20 15 0 17 2 18 24 9z m323 -620 c-2 -2
-12 -2 -21 2 -13 5 -14 9 -5 21 11 12 14 12 22 -2 5 -9 7 -19 4 -21z"/>
</g>
</svg>
